<?xml version="1.0" encoding="utf-8"?>
<!-- Generator: Adobe Illustrator 23.0.0, SVG Export Plug-In . SVG Version: 6.00 Build 0)  -->
<svg version="1.1" id="Layer_2" xmlns="http://www.w3.org/2000/svg" xmlns:xlink="http://www.w3.org/1999/xlink" x="0px" y="0px"
	 viewBox="0 0 2087.1 2056.4" style="enable-background:new 0 0 2087.1 2056.4;" xml:space="preserve">
<style type="text/css">
	.st0{fill:#F9BD5F;}
	.st1{fill:#FBEC5D;}
	.st2{fill:#CCA136;}
	.st3{fill:#EDDB5F;}
	.st4{fill:#E8D967;}
	.st5{fill:#D3C55F;}
	.st6{fill:#F9D45F;}
	.st7{fill:#474143;}
	.st8{fill:url(#SVGID_1_);}
	.st9{fill:url(#SVGID_2_);}
	.st10{fill:#EAD965;}
	.st11{fill:#EFE17B;}
	.st12{opacity:0.62;fill:#D3C55F;}
	.st13{fill:url(#SVGID_3_);}
	.st14{fill:url(#SVGID_4_);}
	.st15{fill:#2BB673;stroke:#424242;stroke-width:0.5;stroke-miterlimit:10;}
	.st16{fill:url(#SVGID_5_);}
	.st17{fill:url(#SVGID_6_);}
	.st18{fill:url(#SVGID_7_);}
	.st19{fill:url(#SVGID_8_);}
	.st20{fill:url(#SVGID_9_);}
	.st21{fill:none;stroke:#FFFFFF;stroke-width:4;stroke-miterlimit:10;}
	.st22{fill:#E2AA2D;}
	.st23{opacity:0.14;fill:#40594C;}
	.st24{opacity:0.26;fill:#40594C;}
	.st25{fill:#FFFFFF;}
	.st26{fill:#2B4E50;}
	.st27{opacity:0.22;fill:#40594C;}
	.st28{opacity:0.15;fill:#40594C;}
	.st29{fill:#E5B05C;}
	.st30{opacity:0.63;fill:#EAD965;}
	.st31{opacity:0.49;fill:#EAD965;}
	.st32{opacity:0.55;fill:#F4B22F;}
	.st33{opacity:0.33;fill:#EAD965;}
	.st34{opacity:0.51;fill:#EAD965;}
</style>
<path class="st0" d="M797.4,719.6c6.4-6.9,11.8-14.3,16.3-22.1c34.2,10.9,73.1,2.2,99.3-25.7c35.2-37.5,34.5-95.9-1-132.5
	c7.7-19.4,3.8-41.8-11.7-56.3c-20.5-19.3-53.6-17.4-73.8,4.1c-7.6,8.1-12.4,17.9-14.2,28c-14.5,4.9-28,13.3-39.3,25.3
	c-0.7,0.8-1.4,1.5-2.1,2.3C726.1,517,668,524.3,631.2,563.6c-43.1,45.9-40.8,118,5.1,161.1C682.2,767.8,754.3,765.5,797.4,719.6z"/>
<path class="st1" d="M790.4,723.6c6.4-6.9,11.8-14.3,16.3-22.1c34.2,10.9,73.1,2.2,99.3-25.7c35.2-37.5,34.5-95.9-1-132.5
	c7.7-19.4,3.8-41.8-11.7-56.3c-20.5-19.3-53.6-17.4-73.8,4.1c-7.6,8.1-12.4,17.9-14.2,28c-14.5,4.9-28,13.3-39.3,25.3
	c-0.7,0.8-1.4,1.5-2.1,2.3C719.1,521,661,528.3,624.2,567.6c-43.1,45.9-40.8,118,5.1,161.1C675.2,771.8,747.3,769.5,790.4,723.6z"/>
<path class="st2" d="M753.7,656c6.8,6.4,16.4,7.2,21.4,1.8c1.7-1.8,2.6-4.1,2.9-6.6c6.5-1.6,12.6-5.1,17.4-10.3
	c5.6-5.9,8.7-13.3,9.6-20.8c4.4,2,7.6,2.5,9,1c3.3-3.5-5.2-17-19.3-30.9c-0.4-0.4-0.8-0.8-1.3-1.3c-0.1-0.1-0.2-0.2-0.3-0.3
	c-0.4-0.4-0.8-0.7-1.2-1.1c-15.7-14.7-31.3-23.6-34.8-19.9c-1.7,1.8-0.3,6.2,3.3,11.9c-7.1,1.5-13.7,5-19,10.6
	c-13.8,14.7-12.9,37.9,2,51.9c1.4,1.3,2.8,2.4,4.3,3.5C748.6,649.3,750.5,653,753.7,656z"/>
<path class="st3" d="M512.7,395.8c-6.3,7-11.6,14.5-15.9,22.4c-34.3-10.3-73.1-0.9-98.8,27.4c-34.6,38.1-32.8,96.4,3.2,132.4
	c-7.4,19.5-3.1,41.9,12.7,56.1c20.9,18.9,53.9,16.5,73.7-5.4c7.5-8.3,12.1-18.1,13.7-28.2c14.4-5.1,27.8-13.8,38.8-25.9
	c0.7-0.8,1.4-1.5,2-2.3c45.2,24.9,103.1,16.6,139.3-23.3c42.3-46.6,38.8-118.7-7.8-161C627.1,345.7,555,349.2,512.7,395.8z"/>
<path class="st1" d="M512.7,405.8c-6.3,7-11.6,14.5-15.9,22.4c-34.3-10.3-73.1-0.9-98.8,27.4c-34.6,38.1-32.8,96.4,3.2,132.4
	c-7.4,19.5-3.1,41.9,12.7,56.1c20.9,18.9,53.9,16.5,73.7-5.4c7.5-8.3,12.1-18.1,13.7-28.2c14.4-5.1,27.8-13.8,38.8-25.9
	c0.7-0.8,1.4-1.5,2-2.3c45.2,24.9,103.1,16.6,139.3-23.3c42.3-46.6,38.8-118.7-7.8-161C627.1,355.7,555,359.2,512.7,405.8z"/>
<path class="st1" d="M474.7,502.3c-6.9-6.2-16.5-6.9-21.4-1.4c-1.7,1.8-2.6,4.1-2.8,6.6c-6.4,1.7-12.5,5.3-17.3,10.6
	c-5.5,6-8.5,13.4-9.2,21c-4.4-1.9-7.7-2.4-9-0.9c-3.3,3.6,5.5,16.9,19.8,30.5c0.4,0.4,0.9,0.8,1.3,1.2c0.1,0.1,0.2,0.2,0.3,0.3
	c0.4,0.4,0.8,0.7,1.2,1.1c15.9,14.5,31.7,23.1,35.2,19.3c1.7-1.8,0.2-6.2-3.5-11.8c7-1.6,13.6-5.2,18.8-10.9
	c13.5-14.9,12.2-38.1-2.9-51.9c-1.4-1.3-2.9-2.4-4.4-3.4C480,508.9,478,505.2,474.7,502.3z"/>
<path class="st4" d="M983.4,733.9c0-9.4-1.1-18.5-3.3-27.3c32.4-15.4,54.8-48.5,54.8-86.7c0-51.5-40.5-93.5-91.4-95.9
	c-7.7-19.4-25.9-33-47.1-33c-28.2,0-51,24-51,53.5c0,11.2,3.3,21.5,8.8,30.1c-7.2,13.5-11.3,28.9-11.3,45.3c0,1,0,2.1,0.1,3.1
	c-50.2,11.9-87.5,57.1-87.5,110.9c0,63,51,114,114,114S983.4,796.8,983.4,733.9z"/>
<path class="st1" d="M983.4,740.9c0-9.4-1.1-18.5-3.3-27.3c32.4-15.4,54.8-48.5,54.8-86.7c0-51.5-40.5-93.5-91.4-95.9
	c-7.7-19.4-25.9-33-47.1-33c-28.2,0-51,24-51,53.5c0,11.2,3.3,21.5,8.8,30.1c-7.2,13.5-11.3,28.9-11.3,45.3c0,1,0,2.1,0.1,3.1
	c-50.2,11.9-87.5,57.1-87.5,110.9c0,63,51,114,114,114S983.4,803.8,983.4,740.9z"/>
<path class="st2" d="M917.2,717c9.3,0,16.8-6,16.8-13.3c0-2.5-0.9-4.8-2.4-6.8c3.6-5.6,5.7-12.3,5.7-19.4c0-8.1-2.7-15.6-7.3-21.7
	c4.6-1.5,7.3-3.4,7.3-5.4c0-4.8-15.4-8.8-35.2-9.3c-0.6,0-1.2,0-1.8,0c-0.1,0-0.3,0-0.4,0c-0.5,0-1.1,0-1.6,0c-21.5,0-39,4.2-39,9.3
	c0,2.5,4,4.7,10.6,6.4c-4.1,5.9-6.6,13-6.6,20.7c0,20.1,16.6,36.5,37,36.5c1.9,0,3.7-0.1,5.5-0.4C908.9,715.6,912.9,717,917.2,717z"
	/>
<path class="st5" d="M1189.6,599.1c-7-3.9-14.2-6.8-21.5-8.7c1.9-30.3-13.4-60.4-41.8-76.1c-38.1-21.1-85.8-8.3-108.5,28.4
	c-17.5-2.3-35.1,5.6-43.8,21.3c-11.6,20.9-3.2,47.6,18.7,59.7c8.3,4.6,17.3,6.4,25.9,5.8c7,10.9,16.8,20.2,28.9,27
	c0.8,0.4,1.5,0.8,2.3,1.2c-11.7,42.1,6.4,88.2,46.2,110.3c46.6,25.8,105.3,8.9,131.2-37.7C1253.1,683.7,1236.3,624.9,1189.6,599.1z"
	/>
<path class="st6" d="M1380,545.5c-8.7-3.6-17.6-6-26.5-7.3c-1.9-35.8-24-69.1-59.4-83.6c-47.6-19.6-101.9,1.9-123.4,48
	c-20.9-0.3-40.4,11.4-48.5,31c-10.7,26,2.8,56.3,30.1,67.5c10.3,4.2,21.2,5.2,31.2,3.3c9.7,11.8,22.4,21.5,37.6,27.7
	c1,0.4,1.9,0.8,2.9,1.1c-8,51,19.5,102.6,69.3,123.1c58.2,23.9,124.8-3.8,148.8-62.1C1466,636,1438.2,569.4,1380,545.5z"/>
<path class="st1" d="M1379.1,551.3c-8.7-3.6-17.6-6-26.5-7.3c-1.9-35.8-24-69.1-59.4-83.6c-47.6-19.6-101.9,1.9-123.4,48
	c-20.9-0.3-40.4,11.4-48.5,31c-10.7,26.1,2.8,56.3,30.1,67.5c10.3,4.2,21.2,5.2,31.2,3.3c9.7,11.8,22.4,21.5,37.6,27.7
	c1,0.4,1.9,0.8,2.9,1.1c-8,51,19.5,102.6,69.3,123.1c58.2,23.9,124.8-3.8,148.8-62.1C1465.1,641.8,1437.3,575.2,1379.1,551.3z"/>
<path class="st2" d="M1330,604c2.7-6.6,0.7-13.7-4.5-15.8c-0.5-0.2-1-0.4-1.5-0.5c-2.9-0.6-5.4-2-7.6-4c-2.4-2.3-5.3-4.2-8.5-5.5
	c-2.9-1.2-5.8-1.8-8.7-2c-3.9-0.3-7.2-2.4-9.8-5.4c-0.2-0.2-0.4-0.4-0.7-0.5c-3.4-1.4-10.8,8.4-16.8,22.2c-0.2,0.4-0.4,0.8-0.6,1.3
	c0,0.1-0.1,0.2-0.1,0.3c-0.2,0.4-0.3,0.8-0.5,1.1c-6.3,15.3-8.4,28.8-4.7,30.3c0.5,0.2,1.1,0.2,1.7-0.1c4.2-1.5,8.8-1.2,12.4,1.5
	c1.9,1.5,4,2.7,6.3,3.6c14.3,5.9,30.6-1.1,36.6-15.6c0.1-0.2,0.2-0.4,0.2-0.6c0.8-2,1.9-3.8,3.4-5.2
	C1327.9,607.8,1329.1,606.1,1330,604z"/>
<path class="st1" d="M1544.2,839.4c6.6-6.6,12.3-13.9,17-21.6c33.8,12,73,4.5,100-22.6c36.4-36.4,37.5-94.7,3.2-132.4
	c8.3-19.1,5.1-41.7-10-56.7c-19.9-19.9-53-19.1-73.9,1.8c-7.9,7.9-12.9,17.5-15,27.5c-14.6,4.4-28.4,12.4-40,24
	c-0.7,0.7-1.4,1.5-2.2,2.2c-43.9-27-102.2-21.5-140.3,16.5c-44.5,44.5-44.5,116.7,0,161.2C1427.5,884,1499.7,884,1544.2,839.4z"/>
<path class="st7" d="M1540,719.4c6.6,6.6,16.1,7.7,21.3,2.5c1.8-1.8,2.8-4,3.1-6.5c6.5-1.4,12.7-4.7,17.8-9.7
	c5.8-5.8,9.1-13,10.2-20.5c4.3,2.2,7.5,2.7,9,1.3c3.4-3.4-4.7-17.2-18.3-31.5c-0.4-0.4-0.8-0.9-1.2-1.3c-0.1-0.1-0.2-0.2-0.3-0.3
	c-0.4-0.4-0.7-0.8-1.1-1.1c-15.2-15.2-30.5-24.6-34.2-21c-1.7,1.7-0.5,6.2,3,12c-7.1,1.2-13.9,4.6-19.3,10
	c-14.2,14.2-14.1,37.5,0.4,51.9c1.3,1.3,2.7,2.5,4.2,3.6C1535.1,712.6,1536.9,716.3,1540,719.4z"/>
<linearGradient id="SVGID_1_" gradientUnits="userSpaceOnUse" x1="804.085" y1="-1407.7592" x2="1085.199" y2="-1407.7592" gradientTransform="matrix(0.7071 0.7071 -0.7071 0.7071 28.7566 943.0887)">
	<stop  offset="0" style="stop-color:#FFFFFF"/>
	<stop  offset="6.748348e-02" style="stop-color:#FDF4DC"/>
	<stop  offset="0.1522" style="stop-color:#FCE8B7"/>
	<stop  offset="0.2443" style="stop-color:#FADE97"/>
	<stop  offset="0.3438" style="stop-color:#F9D57E"/>
	<stop  offset="0.4534" style="stop-color:#F8CF6A"/>
	<stop  offset="0.5784" style="stop-color:#F7CA5C"/>
	<stop  offset="0.7323" style="stop-color:#F7C853"/>
	<stop  offset="1" style="stop-color:#F7C751"/>
</linearGradient>
<path class="st8" d="M1778,681.3c0-9.4-4.1-21.5-6.2-30.2c32.4-15.4,57.7-45.5,57.7-83.8c0-51.5-40.5-93.5-91.4-95.9
	c-7.7-19.4-25.9-33-47.1-33c-28.2,0-51,24-51,53.5c0,11.2,3.3,21.5,8.8,30.1c-7.2,13.5-11.3,28.9-11.3,45.3c0,1,0,2.1,0.1,3.1
	c-50.2,11.9-12.3,11.6-12.3,65.4c0,63-24.2,159.5,38.8,159.5C1727,795.3,1778,744.2,1778,681.3z"/>
<path class="st1" d="M1774.2,682.4c0-9.4-1.1-18.5-3.3-27.3c32.4-15.4,54.8-48.5,54.8-86.7c0-51.5-40.5-93.5-91.4-95.9
	c-7.7-19.4-25.9-33-47.1-33c-28.2,0-51,24-51,53.5c0,11.2,3.3,21.5,8.8,30.1c-7.2,13.5-11.3,28.9-11.3,45.3c0,1,0,2.1,0.1,3.1
	c-50.2,11.9-87.5,57.1-87.5,110.9c0,63,51,114,114,114C1723.2,796.4,1774.2,745.4,1774.2,682.4z"/>
<path class="st2" d="M1713,654.5c9.3,0,16.8-6,16.8-13.3c0-2.5-0.9-4.8-2.4-6.8c3.6-5.6,5.7-12.3,5.7-19.4c0-8.1-2.7-15.6-7.3-21.7
	c4.6-1.5,7.3-3.4,7.3-5.4c0-4.8-15.4-8.8-35.2-9.3c-0.6,0-1.2,0-1.8,0c-0.1,0-0.3,0-0.4,0c-0.5,0-1.1,0-1.6,0c-21.5,0-39,4.2-39,9.3
	c0,2.5,4,4.7,10.6,6.4c-4.1,5.9-6.6,13-6.6,20.7c0,20.1,16.6,36.5,37,36.5c1.9,0,3.7-0.1,5.5-0.4
	C1704.7,653.2,1708.6,654.5,1713,654.5z"/>
<linearGradient id="SVGID_2_" gradientUnits="userSpaceOnUse" x1="-1666.9816" y1="-2194.7532" x2="-1385.8676" y2="-2194.7532" gradientTransform="matrix(-0.1139 0.9935 -0.9935 -0.1139 -874.8265 1757.4534)">
	<stop  offset="0" style="stop-color:#FFFFFF"/>
	<stop  offset="6.748348e-02" style="stop-color:#FDF4DC"/>
	<stop  offset="0.1522" style="stop-color:#FCE8B7"/>
	<stop  offset="0.2443" style="stop-color:#FADE97"/>
	<stop  offset="0.3438" style="stop-color:#F9D57E"/>
	<stop  offset="0.4534" style="stop-color:#F8CF6A"/>
	<stop  offset="0.5784" style="stop-color:#F7CA5C"/>
	<stop  offset="0.7323" style="stop-color:#F7C853"/>
	<stop  offset="1" style="stop-color:#F7C751"/>
</linearGradient>
<path class="st9" d="M1481.5,599c7.4-5.8,14.3-16.6,19.8-23.7c32.2,15.8,71.5,16.9,101.5-6.9c40.3-32,48-89.9,18.2-131.2
	c10.4-18.1,9.8-40.8-3.4-57.5c-17.5-22.1-50.5-25-73.6-6.6c-8.7,6.9-14.8,15.9-18.1,25.6c-15.1,2.7-29.7,9.1-42.5,19.3
	c-0.8,0.6-1.6,1.3-2.4,2c-40.6-31.9-16.7-2.4-58.9,31.1c-49.3,39.2-139.9,80.2-100.8,129.5C1360.5,630,1432.2,638.2,1481.5,599z"/>
<path class="st1" d="M1478.3,596.8c7.4-5.8,13.8-12.4,19.3-19.5c32.2,15.8,72,12.8,102-11c40.3-32,48-89.9,18.2-131.2
	c10.4-18.1,9.8-40.8-3.4-57.5c-17.5-22.1-50.5-25-73.6-6.6c-8.7,6.9-14.8,15.9-18.1,25.6c-15.1,2.7-29.7,9.1-42.5,19.3
	c-0.8,0.6-1.6,1.3-2.4,2c-40.6-31.9-99.1-33-141.3,0.4c-49.3,39.2-57.5,110.9-18.4,160.2C1357.3,627.7,1429,635.9,1478.3,596.8z"/>
<path class="st2" d="M1462,469.5c5.8,7.3,15.1,9.5,20.9,4.9c1.9-1.5,3.2-3.7,3.8-6.1c6.6-0.7,13.2-3.2,18.7-7.6
	c6.4-5.1,10.6-11.8,12.5-19.2c4,2.6,7.2,3.6,8.8,2.3c3.8-3-2.7-17.6-14.6-33.3c-0.3-0.5-0.7-1-1.1-1.4c-0.1-0.1-0.2-0.2-0.3-0.3
	c-0.3-0.4-0.7-0.8-1-1.3c-13.4-16.9-27.5-27.9-31.6-24.7c-1.9,1.5-1.2,6.1,1.6,12.3c-7.2,0.4-14.3,3-20.3,7.8
	c-15.8,12.5-18.2,35.7-5.5,51.7c1.2,1.5,2.4,2.8,3.8,4.1C1457.9,462.1,1459.3,466.1,1462,469.5z"/>
<path class="st1" d="M757,621.3c-6.6-6.6-13.9-12.3-21.6-17c12-33.8,4.5-73-22.6-100c-36.4-36.4-94.7-37.5-132.4-3.2
	c-19.1-8.3-41.7-5.1-56.7,10c-19.9,19.9-19.1,53,1.8,73.9c7.9,7.9,17.5,12.9,27.5,15c4.4,14.6,12.4,28.4,24,40
	c0.7,0.7,1.5,1.4,2.2,2.2c-27,43.9-21.5,102.2,16.5,140.3c44.5,44.5,116.7,44.5,161.2,0C801.5,738,801.5,665.9,757,621.3z"/>
<path class="st7" d="M490.3,663.6c6.6-6.6,7.7-16.1,2.5-21.3c-1.8-1.8-4-2.8-6.5-3.1c-1.4-6.5-4.7-12.7-9.7-17.8
	c-5.8-5.8-13-9.1-20.5-10.2c2.2-4.3,2.7-7.5,1.3-9c-3.4-3.4-17.2,4.7-31.5,18.3c-0.4,0.4-0.9,0.8-1.3,1.2c-0.1,0.1-0.2,0.2-0.3,0.3
	c-0.4,0.4-0.8,0.7-1.1,1.1c-15.2,15.2-24.6,30.5-21,34.2c1.7,1.7,6.2,0.5,12-3c1.2,7.1,4.6,13.9,10,19.3
	c14.2,14.2,37.5,14.1,51.9-0.4c1.3-1.3,2.5-2.7,3.6-4.2C483.5,668.5,487.2,666.7,490.3,663.6z"/>
<path class="st10" d="M1613.6,606.5c-6.6-6.6-13.9-12.3-21.6-17c12-33.8,4.5-73-22.6-100c-24-24-42.3-23.6-62.8-10.7
	c-23.7,15-52.4,20-79.9,14.5c-19.4-3.9-38.7-4.8-46.5,3c-19.9,19.9-19.1,53,1.8,73.9c7.9,7.9,17.5,12.9,27.5,15
	c4.4,14.6,12.4,28.4,24,40c0.7,0.7,1.5,1.4,2.2,2.2c-27,43.9-21.5,102.2,16.5,140.3c44.5,44.5,116.7,44.5,161.2,0
	C1658.1,723.2,1658.1,651,1613.6,606.5z"/>
<path class="st1" d="M1576.8,616.5c-6.6-6.6-13.9-12.3-21.6-17c12-33.8,4.5-73-22.6-100c-24-24-42.3-23.6-62.8-10.7
	c-23.7,15-52.4,20-79.9,14.5c-19.4-3.9-38.7-4.8-46.5,3c-19.9,19.9-19.1,53,1.8,73.9c7.9,7.9,17.5,12.9,27.5,15
	c4.4,14.6,12.4,28.4,24,40c0.7,0.7,1.5,1.4,2.2,2.2c-27,43.9-21.5,102.2,16.5,140.3c44.5,44.5,116.7,44.5,161.2,0
	C1621.3,733.2,1621.3,661,1576.8,616.5z"/>
<path class="st2" d="M1552.8,631.3c6.6-6.6,7.7-16.1,2.5-21.3c-1.8-1.8-4-2.8-6.5-3.1c-1.4-6.5-4.7-12.7-9.7-17.8
	c-5.8-5.8-13-9.1-20.5-10.2c2.2-4.3,2.7-7.5,1.3-9c-3.4-3.4-17.2,4.7-31.5,18.3c-0.4,0.4-0.9,0.8-1.3,1.2c-0.1,0.1-0.2,0.2-0.3,0.3
	c-0.4,0.4-0.8,0.7-1.1,1.1c-15.2,15.2-24.6,30.5-21,34.2c1.7,1.7,6.2,0.5,12-3c1.2,7.1,4.6,13.9,10,19.3
	c14.2,14.2,37.5,14.1,51.9-0.4c1.3-1.3,2.5-2.7,3.6-4.2C1546,636.3,1549.7,634.4,1552.8,631.3z"/>
<path class="st2" d="M586.5,409.8c0-9.3-6-16.8-13.3-16.8c-2.5,0-4.8,0.9-6.8,2.4c-5.6-3.6-12.3-5.7-19.4-5.7
	c-8.1,0-15.6,2.7-21.7,7.3c-1.5-4.6-3.4-7.3-5.4-7.3c-4.8,0-8.8,15.4-9.3,35.2c0,0.6,0,1.2,0,1.8c0,0.1,0,0.3,0,0.4
	c0,0.5,0,1.1,0,1.6c0,21.5,4.2,39,9.3,39c2.5,0,4.7-4,6.4-10.6c5.9,4.1,13,6.6,20.7,6.6c20.1,0,36.5-16.6,36.5-37
	c0-1.9-0.1-3.7-0.4-5.5C585.2,418.1,586.5,414.2,586.5,409.8z"/>
<path class="st11" d="M637.9,555.2c-9.4,0-18.5,1.1-27.3,3.3c-15.4-32.4-48.5-54.8-86.7-54.8c-51.5,0-93.5,40.5-95.9,91.4
	c-19.4,7.7-33,25.9-33,47.1c0,28.2,24,51,53.5,51c11.2,0,21.5-3.3,30.1-8.8c13.5,7.2,28.9,11.3,45.3,11.3c1,0,2.1,0,3.1-0.1
	c11.9,50.2,57.1,87.5,110.9,87.5c63,0,114-51,114-114C751.8,606.2,700.8,555.2,637.9,555.2z"/>
<path class="st1" d="M637.9,565.2c-9.4,0-18.5,1.1-27.3,3.3c-15.4-32.4-48.5-54.8-86.7-54.8c-51.5,0-93.5,40.5-95.9,91.4
	c-19.4,7.7-33,25.9-33,47.1c0,28.2,24,51,53.5,51c11.2,0,21.5-3.3,30.1-8.8c13.5,7.2,28.9,11.3,45.3,11.3c1,0,2.1,0,3.1-0.1
	c11.9,50.2,57.1,87.5,110.9,87.5c63,0,114-51,114-114C751.8,616.2,700.8,565.2,637.9,565.2z"/>
<path class="st0" d="M1381.3,241.8c-6.2,7.1-11.4,14.7-15.5,22.6c-34.5-9.8-73.1,0.2-98.4,28.9c-34,38.6-31.3,96.9,5.3,132.4
	c-7.1,19.6-2.4,41.9,13.6,55.9c21.1,18.6,54.1,15.7,73.7-6.5c7.4-8.4,11.8-18.3,13.3-28.4c14.3-5.4,27.6-14.2,38.4-26.5
	c0.7-0.8,1.3-1.6,2-2.4c45.6,24.2,103.4,15,138.9-25.5c41.6-47.3,37-119.3-10.3-160.9C1494.9,190,1422.9,194.6,1381.3,241.8z"/>
<path class="st1" d="M1388.2,237.6c-6.2,7.1-11.4,14.7-15.5,22.6c-34.5-9.8-73.1,0.2-98.4,28.9c-34,38.6-31.3,96.9,5.3,132.4
	c-7.1,19.6-2.4,41.9,13.6,55.9c21.1,18.6,54.1,15.7,73.7-6.5c7.4-8.4,11.8-18.3,13.3-28.4c14.3-5.4,27.6-14.2,38.4-26.5
	c0.7-0.8,1.3-1.6,2-2.4c45.6,24.2,103.4,15,138.9-25.5c41.6-47.3,37-119.3-10.3-160.9C1501.8,185.7,1429.8,190.4,1388.2,237.6z"/>
<path class="st2" d="M1430.7,355.9c4,3.3,10,3,13.5-0.9c0,0,0,0,0.1-0.1c13.3-15.1,11.6-38.3-3.7-51.8c-0.4-0.3-0.7-0.6-1.1-0.9
	c-1.9-1.6-3.5-3.6-4.5-5.8c-1.1-2.4-2.8-4.7-5-6.7c-7-6.1-16.6-6.6-21.4-1.1c-0.5,0.6-1,1.3-1.4,2c-1.7,3.1-4.5,5.5-7.7,7.1
	c-4,2-7.6,4.8-10.8,8.3c-0.5,0.5-0.9,1.1-1.4,1.7c-3.3,4.2-2.6,10.2,1.5,13.6L1430.7,355.9z"/>
<path class="st3" d="M1696.4,588.3c6.1-7.2,11.1-14.9,15.2-22.9c34.7,9.2,73.1-1.4,97.9-30.6c33.3-39.2,29.7-97.5-7.5-132.2
	c6.7-19.7,1.7-41.9-14.5-55.7c-21.5-18.2-54.4-14.8-73.5,7.8c-7.2,8.5-11.5,18.5-12.8,28.7c-14.2,5.6-27.4,14.7-38,27.2
	c-0.7,0.8-1.3,1.6-2,2.4c-46-23.4-103.6-13.2-138.5,27.8c-40.8,48-35,119.9,13,160.7C1583.7,642.1,1655.6,636.3,1696.4,588.3z"/>
<path class="st1" d="M1696.1,578.3c6.1-7.2,11.1-14.9,15.2-22.9c34.7,9.2,73.1-1.4,97.9-30.6c33.3-39.2,29.7-97.5-7.5-132.2
	c6.7-19.7,1.7-41.9-14.5-55.7c-21.5-18.2-54.4-14.8-73.5,7.8c-7.2,8.5-11.5,18.5-12.8,28.7c-14.2,5.6-27.4,14.7-38,27.2
	c-0.7,0.8-1.3,1.6-2,2.4c-46-23.4-103.6-13.2-138.5,27.8c-40.8,48-35,119.9,13,160.7C1583.4,632.1,1655.3,626.3,1696.1,578.3z"/>
<path class="st1" d="M1730.9,418.6c7.1,6,16.7,6.4,21.5,0.7c1.6-1.9,2.4-4.2,2.6-6.7c6.4-2,12.3-5.7,16.9-11.1
	c5.3-6.2,8.1-13.7,8.5-21.2c4.5,1.8,7.7,2.1,9.1,0.6c3.1-3.7-6-16.7-20.8-29.9c-0.4-0.4-0.9-0.8-1.3-1.2c-0.1-0.1-0.2-0.2-0.3-0.2
	c-0.4-0.3-0.8-0.7-1.2-1c-16.4-14-32.4-22.1-35.8-18.2c-1.6,1.9,0,6.2,3.9,11.7c-7,1.8-13.5,5.7-18.4,11.5
	c-13,15.3-11,38.5,4.6,51.7c1.4,1.2,2.9,2.3,4.5,3.3C1725.4,412.2,1727.5,415.8,1730.9,418.6z"/>
<path class="st4" d="M1194.9,233.6c0.3,9.4,1.7,18.5,4.2,27.1c-31.9,16.5-53.2,50.2-51.9,88.4c1.7,51.4,43.5,92.1,94.4,92.9
	c8.3,19.1,26.9,32.2,48.2,31.5c28.2-0.9,50.2-25.6,49.2-55.2c-0.4-11.2-4-21.4-9.8-29.8c6.8-13.7,10.4-29.3,9.9-45.6
	c0-1-0.1-2.1-0.2-3.1c49.8-13.6,85.6-59.9,83.9-113.7c-2-62.9-54.7-112.3-117.6-110.2C1242.2,118,1192.9,170.7,1194.9,233.6z"/>
<path class="st1" d="M1194.7,226.6c0.3,9.4,1.7,18.5,4.2,27.1c-31.9,16.5-53.2,50.2-51.9,88.4c1.7,51.4,43.5,92.1,94.4,92.9
	c8.3,19.1,26.9,32.2,48.2,31.5c28.2-0.9,50.2-25.6,49.2-55.2c-0.4-11.2-4-21.4-9.8-29.8c6.8-13.7,10.4-29.3,9.9-45.6
	c0-1-0.1-2.1-0.2-3.1c49.8-13.6,85.6-59.9,83.9-113.7c-2-62.9-54.7-112.3-117.6-110.2C1242,111,1192.7,163.7,1194.7,226.6z"/>
<path class="st12" d="M1022.7,443.6c7.1,3.6,14.4,6.3,21.8,8c-0.9,30.4,15.4,60,44.2,74.7c38.8,19.9,86.1,5.5,107.5-31.9
	c17.6,1.7,34.9-6.7,43.1-22.8c10.9-21.2,1.6-47.7-20.7-59.1c-8.4-4.3-17.5-5.9-26.1-5c-7.4-10.7-17.4-19.7-29.7-26
	c-0.8-0.4-1.6-0.8-2.4-1.2c10.4-42.4-9.2-87.9-49.8-108.7c-47.4-24.3-105.6-5.5-129.9,41.9C956.5,361.2,975.3,419.3,1022.7,443.6z"
	/>
<path class="st1" d="M1019.6,435.8c7.1,3.6,14.4,6.3,21.8,8c-0.9,30.4,15.4,60,44.2,74.7c38.8,19.9,86.1,5.5,107.5-31.9
	c17.6,1.7,34.9-6.7,43.1-22.8c10.9-21.2,1.6-47.7-20.7-59.1c-8.4-4.3-17.5-5.9-26.1-5c-7.4-10.7-17.4-19.7-29.7-26
	c-0.8-0.4-1.6-0.8-2.4-1.2c10.4-42.4-9.2-87.9-49.8-108.7c-47.4-24.3-105.6-5.5-129.9,41.9C953.4,353.3,972.2,411.5,1019.6,435.8z"
	/>
<path class="st6" d="M867.1,527.6c8.8,3.3,17.8,5.4,26.7,6.5c3.1,35.7,26.2,68.3,62,81.7c48.2,18,101.7-5.2,121.8-52
	c20.9-0.4,40-12.7,47.5-32.6c9.9-26.4-4.6-56.2-32.3-66.5c-10.5-3.9-21.3-4.5-31.3-2.3c-10.1-11.5-23.1-20.7-38.4-26.5
	c-1-0.4-1.9-0.7-2.9-1c6.4-51.2-22.8-101.9-73.2-120.8c-59-22-124.6,7.9-146.7,66.9C778.2,439.8,808.1,505.5,867.1,527.6z"/>
<path class="st1" d="M877.5,525.1c8.8,3.3,17.8,5.4,26.7,6.5c3.1,35.7,26.2,68.3,62,81.7c48.2,18,101.7-5.2,121.8-52
	c20.9-0.4,40-12.7,47.5-32.6c9.9-26.4-4.6-56.2-32.3-66.5c-10.5-3.9-21.3-4.5-31.3-2.3c-10.1-11.5-23.1-20.7-38.4-26.5
	c-1-0.4-1.9-0.7-2.9-1c6.4-51.2-22.8-101.9-73.2-120.8c-59-22-124.6,7.9-146.7,66.9C788.6,437.4,818.5,503,877.5,525.1z"/>
<path class="st2" d="M912.2,456.1c-2.6,6.9-0.2,14.2,5.2,16.2c1.8,0.7,3.8,0.7,5.7,0.1c3.2,4.2,7.6,7.6,12.9,9.6
	c6,2.3,12.4,2.3,18.2,0.6c-0.1,3.8,0.5,6.4,2,6.9c3.6,1.3,10.9-9,16.7-23.6c0.2-0.4,0.4-0.9,0.5-1.3c0-0.1,0.1-0.2,0.1-0.3
	c0.2-0.4,0.3-0.8,0.5-1.2c6-16,7.7-30.2,3.9-31.6c-1.8-0.7-4.6,1.7-7.7,6.1c-3.2-4.7-7.9-8.5-13.6-10.7c-15-5.6-31.7,2.2-37.4,17.4
	c-0.5,1.4-0.9,2.8-1.2,4.2C915.5,450.3,913.5,452.9,912.2,456.1z"/>
<path class="st2" d="M1088.4,383.5c4.2,2,8.9,0.9,10.4-2.5c0.1-0.3,0.3-0.6,0.3-1c0.5-1.8,1.5-3.5,2.8-4.8c1.6-1.5,2.9-3.3,3.8-5.4
	c0.8-1.8,1.4-3.7,1.6-5.6c0.3-2.5,1.8-4.6,3.8-6.2c0.2-0.1,0.3-0.3,0.4-0.4c1-2.2-5.1-7.2-13.9-11.6c-0.3-0.1-0.5-0.3-0.8-0.4
	c-0.1,0-0.1-0.1-0.2-0.1c-0.2-0.1-0.5-0.2-0.7-0.3c-9.7-4.5-18.5-6.3-19.6-4c-0.1,0.3-0.1,0.7,0,1.1c0.9,2.8,0.5,5.8-1.3,8
	c-1,1.2-1.9,2.5-2.6,4c-4.2,9.1-0.2,19.9,9,24.3c0.1,0.1,0.3,0.1,0.4,0.2c1.2,0.5,2.4,1.3,3.3,2.3
	C1086,382,1087.1,382.8,1088.4,383.5z"/>
<linearGradient id="SVGID_3_" gradientUnits="userSpaceOnUse" x1="-3658.0862" y1="2321.7458" x2="-3376.9722" y2="2321.7458" gradientTransform="matrix(0.7297 0.6838 -0.6838 0.7297 4661.0552 1120.1909)">
	<stop  offset="0" style="stop-color:#FFFFFF"/>
	<stop  offset="6.748348e-02" style="stop-color:#FDF4DC"/>
	<stop  offset="0.1522" style="stop-color:#FCE8B7"/>
	<stop  offset="0.2443" style="stop-color:#FADE97"/>
	<stop  offset="0.3438" style="stop-color:#F9D57E"/>
	<stop  offset="0.4534" style="stop-color:#F8CF6A"/>
	<stop  offset="0.5784" style="stop-color:#F7CA5C"/>
	<stop  offset="0.7323" style="stop-color:#F7C853"/>
	<stop  offset="1" style="stop-color:#F7C751"/>
</linearGradient>
<path class="st13" d="M594.8,471.9c-0.3-9.4-4.8-21.3-7.2-30c31.9-16.5,56.2-47.4,55-85.6c-1.7-51.4-43.5-92.1-94.4-92.9
	c-8.3-19.1-26.9-32.2-48.2-31.5c-28.2,0.9-50.2,25.6-49.2,55.2c0.4,11.2,4,21.4,9.8,29.8c-6.8,13.7-10.4,29.3-9.9,45.6
	c0,1,0.1,2.1,0.2,3.1c-49.8,13.6-11.9,12-10.2,65.8c2,62.9-19,160.2,43.9,158.1C547.5,587.4,596.8,534.8,594.8,471.9z"/>
<path class="st1" d="M598,463.1c-0.3-9.4-1.7-18.5-4.2-27.1c31.9-16.5,53.2-50.2,51.9-88.4c-1.7-51.4-43.5-92.1-94.4-92.9
	c-8.3-19.1-26.9-32.2-48.2-31.5c-28.2,0.9-50.2,25.6-49.2,55.2c0.4,11.2,4,21.4,9.8,29.8c-6.8,13.7-10.4,29.3-9.9,45.6
	c0,1,0.1,2.1,0.2,3.1c-49.8,13.6-85.6,59.9-83.9,113.7c2,62.9,54.7,112.3,117.6,110.2C550.7,578.7,600.1,526,598,463.1z"/>
<linearGradient id="SVGID_4_" gradientUnits="userSpaceOnUse" x1="-1544.4325" y1="3613.7683" x2="-1263.3185" y2="3613.7683" gradientTransform="matrix(8.161647e-02 -0.9967 0.9967 8.161647e-02 -2760.1467 -1157.6041)">
	<stop  offset="0" style="stop-color:#FFFFFF"/>
	<stop  offset="6.748348e-02" style="stop-color:#FDF4DC"/>
	<stop  offset="0.1522" style="stop-color:#FCE8B7"/>
	<stop  offset="0.2443" style="stop-color:#FADE97"/>
	<stop  offset="0.3438" style="stop-color:#F9D57E"/>
	<stop  offset="0.4534" style="stop-color:#F8CF6A"/>
	<stop  offset="0.5784" style="stop-color:#F7CA5C"/>
	<stop  offset="0.7323" style="stop-color:#F7C853"/>
	<stop  offset="1" style="stop-color:#F7C751"/>
</linearGradient>
<path class="st14" d="M721.5,428.6c-7.2,6.1-13.7,17-19,24.3c-32.7-14.7-72-14.6-101.2,10.2c-39.2,33.3-45.1,91.4-14,131.7
	c-9.8,18.4-8.5,41.1,5.3,57.3c18.2,21.5,51.3,23.4,73.8,4.2c8.5-7.2,14.3-16.4,17.2-26.2c15-3.2,29.4-10.1,41.9-20.7
	c0.8-0.7,1.6-1.4,2.3-2c41.6,30.5,16.8,1.9,57.8-33c48-40.7,137.2-84.7,96.5-132.7C841.4,393.7,769.5,387.8,721.5,428.6z"/>
<path class="st1" d="M724.8,421.7c-7.2,6.1-13.4,12.9-18.7,20.2c-32.7-14.7-72.4-10.4-101.6,14.3c-39.2,33.3-45.1,91.4-14,131.7
	c-9.8,18.4-8.5,41.1,5.3,57.3c18.2,21.5,51.3,23.4,73.8,4.2c8.5-7.2,14.3-16.4,17.2-26.2c15-3.2,29.4-10.1,41.9-20.7
	c0.8-0.7,1.6-1.4,2.3-2c41.6,30.5,100.1,29.8,141.2-5c48-40.7,53.9-112.7,13.2-160.7C844.7,386.9,772.8,381,724.8,421.7z"/>
<path class="st2" d="M743.2,371.5c-6-7.1-15.4-9-21.1-4.2c-1.9,1.6-3.1,3.8-3.6,6.2c-6.6,0.9-13,3.6-18.5,8.2
	c-6.2,5.3-10.2,12.2-11.8,19.6c-4.1-2.5-7.3-3.3-8.8-2c-3.7,3.1,3.3,17.5,15.7,32.9c0.4,0.5,0.7,0.9,1.1,1.4
	c0.1,0.1,0.2,0.2,0.3,0.3c0.3,0.4,0.7,0.8,1,1.2c13.9,16.4,28.4,27,32.4,23.7c1.9-1.6,1-6.1-2-12.2c7.2-0.7,14.2-3.4,20.1-8.4
	c15.4-13,17.1-36.2,3.9-51.8c-1.2-1.4-2.5-2.7-3.9-3.9C747.5,378.7,746,374.8,743.2,371.5z"/>
<path class="st10" d="M596.2,350.4c6.9,6.4,14.3,11.8,22.1,16.2c-10.9,34.2-2.1,73.1,25.8,99.3c24.8,23.3,43,22.3,63.1,8.7
	c23.2-15.7,51.7-21.6,79.4-17.1c19.5,3.2,38.8,3.5,46.3-4.5c19.3-20.6,17.4-53.6-4.2-73.8c-8.1-7.6-17.9-12.3-28-14.1
	c-4.9-14.5-13.3-28-25.3-39.2c-0.8-0.7-1.5-1.4-2.3-2.1c25.6-44.8,18.2-102.9-21.1-139.7c-45.9-43-118.1-40.7-161.1,5.2
	C548,235.2,550.3,307.3,596.2,350.4z"/>
<path class="st1" d="M602.2,340.2c6.9,6.4,14.3,11.8,22.1,16.2c-10.9,34.2-2.1,73.1,25.8,99.3c24.8,23.3,43,22.3,63.1,8.7
	c23.2-15.7,51.7-21.6,79.4-17.1c19.5,3.2,38.8,3.5,46.3-4.5c19.3-20.6,17.4-53.6-4.2-73.8c-8.1-7.6-17.9-12.3-28-14.1
	c-4.9-14.5-13.3-28-25.3-39.2c-0.8-0.7-1.5-1.4-2.3-2.1c25.6-44.8,18.2-102.9-21.1-139.7c-45.9-43-118.1-40.7-161.1,5.2
	C553.9,225,556.2,297.1,602.2,340.2z"/>
<path class="st2" d="M1620.1,402.7c0.3,9.3,6.5,16.6,13.9,16.4c2.5-0.1,4.8-1,6.7-2.6c5.7,3.4,12.5,5.3,19.6,5.1
	c8.1-0.3,15.5-3.2,21.5-8c1.7,4.5,3.6,7.2,5.7,7.1c4.8-0.2,8.3-15.7,8.1-35.5c0-0.6,0-1.2,0-1.8c0-0.1,0-0.3,0-0.4
	c0-0.5,0-1.1,0-1.6c-0.7-21.5-5.4-38.8-10.6-38.7c-2.5,0.1-4.6,4.2-6,10.8c-6-3.9-13.2-6.1-20.9-5.9c-20.1,0.7-35.9,17.7-35.2,38.2
	c0.1,1.9,0.3,3.7,0.6,5.5C1621.2,394.3,1620,398.3,1620.1,402.7z"/>
<path class="st2" d="M620.9,621.4c0-9.3-6-16.8-13.3-16.8c-2.5,0-4.8,0.9-6.8,2.4c-5.6-3.6-12.3-5.7-19.4-5.7
	c-8.1,0-15.6,2.7-21.7,7.3c-1.5-4.6-3.4-7.3-5.4-7.3c-4.8,0-8.8,15.4-9.3,35.2c0,0.6,0,1.2,0,1.8c0,0.1,0,0.3,0,0.4
	c0,0.5,0,1.1,0,1.6c0,21.5,4.2,39,9.3,39c2.5,0,4.7-4,6.4-10.6c5.9,4.1,13,6.6,20.7,6.6c20.1,0,36.5-16.6,36.5-37
	c0-1.9-0.1-3.7-0.4-5.5C619.6,629.7,620.9,625.7,620.9,621.4z"/>
<g>
	<path class="st15" d="M1768.4,593.7c-158.8,158.7-1255.8,104.9-1360.7,0c-21,0-36.8,22-32.3,45.2l268.3,1367.9
		c3.3,17,16.8,29.2,32.3,29.2h810.1c15.4,0,28.7-11.9,32.2-28.8l282.3-1367.9C1805.4,616,1789.5,593.7,1768.4,593.7z"/>
</g>
<linearGradient id="SVGID_5_" gradientUnits="userSpaceOnUse" x1="1554.8807" y1="1785.601" x2="-2211.4451" y2="-115.8057">
	<stop  offset="3.788422e-02" style="stop-color:#FFFFFF"/>
	<stop  offset="0.1295" style="stop-color:#E5EEDF"/>
	<stop  offset="0.2846" style="stop-color:#BED3AE"/>
	<stop  offset="0.4389" style="stop-color:#9EBE86"/>
	<stop  offset="0.5896" style="stop-color:#85AD67"/>
	<stop  offset="0.7356" style="stop-color:#73A151"/>
	<stop  offset="0.8748" style="stop-color:#699944"/>
	<stop  offset="1" style="stop-color:#65973F"/>
</linearGradient>
<path class="st16" d="M500.3,633.7c0,0.2,256,1402,256,1402l91.9,0L611.6,656.1C611.6,656.1,552,647.3,500.3,633.7z"/>
<linearGradient id="SVGID_6_" gradientUnits="userSpaceOnUse" x1="1597.8444" y1="1689.7739" x2="-2045.8225" y2="-149.7092">
	<stop  offset="3.788422e-02" style="stop-color:#FFFFFF"/>
	<stop  offset="0.1295" style="stop-color:#E5EEDF"/>
	<stop  offset="0.2846" style="stop-color:#BED3AE"/>
	<stop  offset="0.4389" style="stop-color:#9EBE86"/>
	<stop  offset="0.5896" style="stop-color:#85AD67"/>
	<stop  offset="0.7356" style="stop-color:#73A151"/>
	<stop  offset="0.8748" style="stop-color:#699944"/>
	<stop  offset="1" style="stop-color:#65973F"/>
</linearGradient>
<polygon class="st17" points="771.8,676.1 1014.6,2035.8 1106.5,2035.8 875.2,684.5 "/>
<linearGradient id="SVGID_7_" gradientUnits="userSpaceOnUse" x1="1656.4707" y1="1592.4581" x2="-1958.5444" y2="-232.5603">
	<stop  offset="3.788422e-02" style="stop-color:#FFFFFF"/>
	<stop  offset="0.1295" style="stop-color:#E5EEDF"/>
	<stop  offset="0.2846" style="stop-color:#BED3AE"/>
	<stop  offset="0.4389" style="stop-color:#9EBE86"/>
	<stop  offset="0.5896" style="stop-color:#85AD67"/>
	<stop  offset="0.7356" style="stop-color:#73A151"/>
	<stop  offset="0.8748" style="stop-color:#699944"/>
	<stop  offset="1" style="stop-color:#65973F"/>
</linearGradient>
<polygon class="st18" points="1033.4,692.2 1276,2035.7 1364.7,2035.7 1135.2,694 "/>
<linearGradient id="SVGID_8_" gradientUnits="userSpaceOnUse" x1="1712.1948" y1="1486.0697" x2="-1862.767" y2="-318.728">
	<stop  offset="3.788422e-02" style="stop-color:#FFFFFF"/>
	<stop  offset="0.1295" style="stop-color:#E5EEDF"/>
	<stop  offset="0.2846" style="stop-color:#BED3AE"/>
	<stop  offset="0.4389" style="stop-color:#9EBE86"/>
	<stop  offset="0.5896" style="stop-color:#85AD67"/>
	<stop  offset="0.7356" style="stop-color:#73A151"/>
	<stop  offset="0.8748" style="stop-color:#699944"/>
	<stop  offset="1" style="stop-color:#65973F"/>
</linearGradient>
<path class="st19" d="M1555.5,1826.1L1365,688.4c0,0-90.3,5-100.4,4c0.8,4.3,255.4,1317,255.4,1317l-2.7,0.8
	C1517.4,2009.9,1555.2,1826.5,1555.5,1826.1z"/>
<linearGradient id="SVGID_9_" gradientUnits="userSpaceOnUse" x1="1845.5272" y1="1235.0991" x2="-1780.3302" y2="-595.3929">
	<stop  offset="3.788422e-02" style="stop-color:#FFFFFF"/>
	<stop  offset="0.1295" style="stop-color:#E5EEDF"/>
	<stop  offset="0.2846" style="stop-color:#BED3AE"/>
	<stop  offset="0.4389" style="stop-color:#9EBE86"/>
	<stop  offset="0.5896" style="stop-color:#85AD67"/>
	<stop  offset="0.7356" style="stop-color:#73A151"/>
	<stop  offset="0.8748" style="stop-color:#699944"/>
	<stop  offset="1" style="stop-color:#65973F"/>
</linearGradient>
<path class="st20" d="M1672.2,1260.1l-90.3-595.6c0,0-80.9,13.1-108.6,14.7c0.5,3.1,138.2,875.3,138.2,875.3
	C1612.5,1549.7,1672.2,1260.1,1672.2,1260.1z"/>
<line class="st21" x1="2028.8" y1="2045.6" x2="58.8" y2="2045.6"/>
<path class="st2" d="M509.9,382.4c0,1.2-4.3,1-9,0.4c-8.2-1-15.9,4.6-17.2,12.8c-0.3,2.2-0.5,4.4-0.4,6.7
	c0.7,20.1,17.9,35.8,38.3,35.1c1.9-0.1,3.7-0.3,5.5-0.6c3.1,2,7.1,3.2,11.4,3.1c9.3-0.3,16.6-6.6,16.3-13.9c-0.1-2.5-1-4.8-2.6-6.7
	c3.4-5.7,5.2-12.5,5-19.6c-0.3-8.1-3.3-15.5-8-21.4c3.4-1.3-18.7-1.2-30.2-2C514.9,376,511.2,378.5,509.9,382.4L509.9,382.4z"/>
<path class="st2" d="M1258.9,254.6c0,1.2-4.3,1-9,0.4c-8.2-1-15.9,4.6-17.2,12.8c-0.3,2.2-0.5,4.4-0.4,6.7
	c0.7,20.1,17.9,35.8,38.3,35.1c1.9-0.1,3.7-0.3,5.5-0.6c3.1,2,7.1,3.2,11.4,3.1c9.3-0.3,16.6-6.6,16.3-13.9c-0.1-2.5-1-4.8-2.6-6.7
	c3.4-5.7,5.2-12.5,5-19.6c-0.3-8.1-3.3-15.5-8-21.4c3.4-1.3-18.7-1.2-30.2-2C1264,248.2,1260.2,250.7,1258.9,254.6L1258.9,254.6z"/>
<path class="st2" d="M521.7,306.4"/>
<path class="st22" d="M704.4,278.1c-0.5-0.1-1-0.3-1.6-0.4c-18.7-6.5-39.3,3.3-46.3,22.2c0,0,0,0.1,0,0.2c0,5.8-2.6,11.1-7.8,13.6
	c-0.4,0.2-0.8,0.5-0.9,0.9c-3.3,8.7-0.3,17.9,6.6,20.4c0.9,0.3,1.9,0.6,2.8,0.6c3.1,0.3,5.9,1.7,8.1,3.8c3.5,3.4,7.6,6.1,12.4,7.9
	c4.3,1.6,8.8,2.3,13.1,2.3c4.4-0.1,8.6,2.3,11,6.1c0.4,0.6,0.8,1,1.3,1.2c4.5,1.7,13.7-11.4,21-29.7c0.2-0.5,0.5-1.1,0.7-1.7
	c0-0.1,0.1-0.2,0.1-0.4c0.2-0.5,0.4-1,0.6-1.5c7.5-20.2,9.7-38,4.9-39.8L704.4,278.1z"/>
<path class="st2" d="M1663.8,440.4c-0.4-0.1-0.8-0.2-1.2-0.3c-14.3-5-30,2.5-35.4,16.9c0,0,0,0.1,0,0.1c0,4.4-2,8.5-6,10.4
	c-0.3,0.2-0.6,0.4-0.7,0.7c-2.5,6.7-0.2,13.6,5,15.6c0.7,0.3,1.4,0.4,2.2,0.5c2.3,0.2,4.5,1.3,6.2,2.9c2.6,2.6,5.8,4.6,9.5,6
	c3.3,1.2,6.7,1.8,10,1.7c3.4-0.1,6.5,1.8,8.4,4.6c0.3,0.4,0.6,0.7,1,0.9c3.5,1.3,10.4-8.7,16.1-22.7c0.2-0.4,0.4-0.8,0.5-1.3
	c0-0.1,0.1-0.2,0.1-0.3c0.1-0.4,0.3-0.8,0.4-1.1c5.8-15.4,7.4-29,3.8-30.4L1663.8,440.4z"/>
<path class="st23" d="M509.4,664.6c0,0,59.6,639.1,39.1,839.3L378.5,638.2c0,0-4.9-60.4,45.5-34.5
	C414.6,633.3,509.4,664.6,509.4,664.6z"/>
<path class="st24" d="M1485.9,1341H658.8c-80.1,0-145.1-65-145.1-145.1v0c0-80.1,65-145.1,145.1-145.1h827.1
	c80.1,0,145.1,65,145.1,145.1v0C1631,1276,1566,1341,1485.9,1341z"/>
<path class="st25" d="M1495.9,1353.3H668.8c-80.1,0-145.1-65-145.1-145.1v0c0-80.1,65-145.1,145.1-145.1h827.1
	c80.1,0,145.1,65,145.1,145.1v0C1641,1288.4,1576,1353.3,1495.9,1353.3z"/>
<g>
	<g>
		<path d="M739,1267.4v-114.1h22.5v42.2H787v-42.2h22.7v114.1H787v-49.6h-25.5v49.6H739z"/>
		<path d="M886.1,1229c0,12.2-2.9,21.9-8.7,29.1c-5.8,7.2-13.6,10.8-23.2,10.8c-9.7,0-17.5-3.6-23.2-10.7
			c-5.8-7.2-8.6-16.9-8.6-29.1c0-12.1,2.9-21.8,8.6-28.9c5.8-7.1,13.5-10.7,23.2-10.7c9.7,0,17.5,3.6,23.3,10.7
			C883.2,1207.3,886.1,1216.9,886.1,1229z M854.1,1250.3c3.8,0,6.7-1.9,8.7-5.6c2.1-3.7,3.1-9,3.1-15.9c0-6.8-1-12.1-3.1-15.8
			c-2.1-3.7-5-5.6-8.7-5.6s-6.6,1.8-8.7,5.5c-2,3.7-3,9-3,15.9c0,6.9,1,12.2,3,15.9C847.5,1248.5,850.4,1250.3,854.1,1250.3z"/>
		<path d="M952.9,1190.8v39.7c0,15.3-2,25.5-6.1,30.7c-4,5.1-11.3,7.7-21.9,7.7c-10.6,0-18-2.6-22.1-7.7c-4.1-5.1-6.1-15.3-6.1-30.7
			v-39.7h20.6v49.3c0,4,0.5,6.7,1.6,8.1s3,2.1,5.8,2.1c2.8,0,4.7-0.7,5.8-2.2c1.1-1.5,1.7-4.1,1.7-8v-49.3H952.9z"/>
		<path d="M962.2,1260.9l8.8-15.5c2.6,1.7,4.9,3,6.8,3.8c1.9,0.8,3.7,1.2,5.2,1.2c1.6,0,3-0.5,4-1.6c1.1-1,1.6-2.3,1.6-3.9
			c0-2.7-2.6-5.7-7.8-8.9c-1.4-0.8-2.4-1.5-3.1-2c-5-3.4-8.5-6.7-10.5-9.9c-2-3.2-3-7-3-11.4c0-7.2,2.2-12.9,6.7-17.1
			c4.5-4.2,10.5-6.3,18.1-6.3c3.8,0,7.4,0.5,10.9,1.6c3.5,1.1,6.8,2.7,10,5l-9,15.2c-2-1.7-3.9-3-5.7-3.8c-1.7-0.8-3.4-1.3-4.9-1.3
			c-1.7,0-3.1,0.5-4.2,1.4c-1.1,0.9-1.6,2.2-1.6,3.7c0,2.2,2.4,4.8,7.3,7.8c1.5,0.9,2.7,1.7,3.5,2.3c5.4,3.7,9.2,7.3,11.3,10.7
			c2.1,3.4,3.2,7.3,3.2,11.9c0,7.4-2.4,13.5-7.3,18.1c-4.9,4.6-11.3,7-19.2,7c-3.9,0-7.5-0.7-11-2
			C968.8,1265.6,965.5,1263.6,962.2,1260.9z"/>
		<path d="M1038,1234.8v0.6c0,5.7,1,10.1,3,13.2c2,3.1,4.9,4.6,8.7,4.6c2.4,0,4.4-0.7,6.1-2.2c1.7-1.5,3.1-3.7,4.1-6.6h18.2
			c-1.7,7.7-5.1,13.6-10.4,18c-5.2,4.3-11.7,6.5-19.3,6.5c-9.5,0-17.1-3.6-22.7-10.7c-5.6-7.1-8.4-16.8-8.4-28.9
			c0-12.3,2.8-22,8.4-29.1c5.6-7.1,13.2-10.7,22.7-10.7c10.1,0,17.7,3.5,22.9,10.5s7.7,17.4,7.7,31.2v3.7H1038z M1060.6,1222.6
			c-0.2-5.6-1.2-9.7-3-12.4c-1.8-2.7-4.6-4-8.3-4c-3.6,0-6.4,1.4-8.4,4.2c-1.9,2.8-2.9,6.9-2.9,12.3L1060.6,1222.6z"/>
		<path d="M1122.9,1263.5v-23.7c2.9,2.5,5.7,4.4,8.4,5.6c2.8,1.3,5.5,1.9,8.4,1.9c3.9,0,6.9-1,9.1-3c2.2-2,3.3-4.8,3.3-8.3
			c0-4.3-3-9-9-14.1c-1.7-1.4-2.9-2.5-3.8-3.3c-7-6.3-11.8-11.9-14.4-16.8c-2.6-5-3.9-10.6-3.9-16.9c0-9.8,2.8-17.8,8.3-23.9
			c5.5-6.1,12.8-9.1,21.8-9.1c3.2,0,6.3,0.5,9.4,1.4c3.1,0.9,6.4,2.3,9.8,4.3v20.2c-4-1.9-7.1-3.3-9.3-4c-2.2-0.7-4.2-1.1-5.9-1.1
			c-3.3,0-6,1-8,3.1c-2.1,2.1-3.1,4.8-3.1,8.1c0,2.9,0.8,5.6,2.3,8.2c1.6,2.5,5.2,6.3,10.9,11.2c7.7,6.6,12.6,12,14.8,16.4
			c2.2,4.3,3.3,9.6,3.3,15.7c0,10.4-2.9,18.6-8.8,24.6s-13.8,9-23.9,9c-3.9,0-7.4-0.4-10.7-1.3
			C1128.7,1266.6,1125.7,1265.3,1122.9,1263.5z"/>
		<path d="M1203.2,1234.8v0.6c0,5.7,1,10.1,3,13.2c2,3.1,4.9,4.6,8.7,4.6c2.4,0,4.4-0.7,6.1-2.2c1.7-1.5,3.1-3.7,4.1-6.6h18.2
			c-1.7,7.7-5.1,13.6-10.4,18c-5.2,4.3-11.7,6.5-19.3,6.5c-9.5,0-17.1-3.6-22.7-10.7c-5.6-7.1-8.4-16.8-8.4-28.9
			c0-12.3,2.8-22,8.4-29.1c5.6-7.1,13.2-10.7,22.7-10.7c10.1,0,17.7,3.5,22.9,10.5s7.7,17.4,7.7,31.2v3.7H1203.2z M1225.7,1222.6
			c-0.2-5.6-1.2-9.7-3-12.4c-1.8-2.7-4.6-4-8.3-4c-3.6,0-6.4,1.4-8.4,4.2c-1.9,2.8-2.9,6.9-2.9,12.3L1225.7,1222.6z"/>
		<path d="M1255.2,1267.4v-76.6h19.7v13.6c1.7-5,4-8.7,6.9-11.2c2.9-2.5,6.3-3.7,10.4-3.8v20.2h-1.4c-5.6,0-9.4,1.3-11.4,3.9
			c-2,2.6-3,8.6-3,17.9v36H1255.2z"/>
		<path d="M1300,1170.3c0-3.5,1.2-6.4,3.5-8.8c2.3-2.4,5.2-3.6,8.7-3.6c3.3,0,6.2,1.2,8.6,3.6c2.4,2.4,3.6,5.3,3.6,8.8
			c0,3.3-1.2,6.2-3.5,8.5c-2.3,2.3-5.2,3.5-8.6,3.5c-3.5,0-6.4-1.1-8.7-3.4C1301.2,1176.6,1300,1173.8,1300,1170.3z M1301.6,1267.4
			v-76.6h21.2v76.6H1301.6z"/>
		<path d="M1355.4,1234.8v0.6c0,5.7,1,10.1,3,13.2c2,3.1,4.9,4.6,8.7,4.6c2.4,0,4.4-0.7,6.1-2.2c1.7-1.5,3.1-3.7,4.1-6.6h18.2
			c-1.7,7.7-5.1,13.6-10.4,18c-5.2,4.3-11.7,6.5-19.3,6.5c-9.5,0-17.1-3.6-22.7-10.7c-5.6-7.1-8.4-16.8-8.4-28.9
			c0-12.3,2.8-22,8.4-29.1c5.6-7.1,13.2-10.7,22.7-10.7c10.1,0,17.7,3.5,22.9,10.5s7.7,17.4,7.7,31.2v3.7H1355.4z M1377.9,1222.6
			c-0.2-5.6-1.2-9.7-3-12.4c-1.8-2.7-4.6-4-8.3-4c-3.6,0-6.4,1.4-8.4,4.2c-1.9,2.8-2.9,6.9-2.9,12.3L1377.9,1222.6z"/>
		<path d="M1401.7,1260.9l8.8-15.5c2.6,1.7,4.9,3,6.8,3.8c1.9,0.8,3.7,1.2,5.2,1.2c1.6,0,3-0.5,4-1.6c1.1-1,1.6-2.3,1.6-3.9
			c0-2.7-2.6-5.7-7.8-8.9c-1.4-0.8-2.4-1.5-3.1-2c-5-3.4-8.5-6.7-10.5-9.9c-2-3.2-3-7-3-11.4c0-7.2,2.2-12.9,6.7-17.1
			c4.5-4.2,10.5-6.3,18.1-6.3c3.8,0,7.4,0.5,10.9,1.6c3.5,1.1,6.8,2.7,10,5l-9,15.2c-2-1.7-3.9-3-5.7-3.8c-1.7-0.8-3.4-1.3-4.9-1.3
			c-1.7,0-3.1,0.5-4.2,1.4c-1.1,0.9-1.6,2.2-1.6,3.7c0,2.2,2.4,4.8,7.3,7.8c1.5,0.9,2.7,1.7,3.5,2.3c5.4,3.7,9.2,7.3,11.3,10.7
			c2.1,3.4,3.2,7.3,3.2,11.9c0,7.4-2.4,13.5-7.3,18.1c-4.9,4.6-11.3,7-19.2,7c-3.9,0-7.5-0.7-11-2
			C1408.3,1265.6,1404.9,1263.6,1401.7,1260.9z"/>
	</g>
</g>
<path class="st26" d="M1534.3,1931.1l-16.7,83.3c-2.6,12.8-13.8,22-26.9,22h-48l40.8-9.6c8.7-2.1,15.8-8.2,19.2-16.5L1534.3,1931.1z
	"/>
<path class="st26" d="M628.6,1931.1l16.7,83.3c2.6,12.8,13.8,22,26.9,22h48l-40.8-9.6c-8.7-2.1-15.8-8.2-19.2-16.5L628.6,1931.1z"/>
<path class="st27" d="M1477.6,708.4c-25,2.5-77.8,7.6-106.9,9.5c-66.7,4.3-144.6,6.8-235.4,6.8c-657.7,0-720.1-102.9-710.3-121
	c84.1,52.2,487.5,96,836.1,87.6c35.7-0.9,70.7-2.2,104.9-4.2c29.1-1.7,79.5-5,107-7.5"/>
<path class="st28" d="M1473.1,679.3c146.3-16.1,243.5-39.2,297.9-85.8c0,0,40.2,81.6-293.1,115.1"/>
<path class="st2" d="M708.2,528.8c-2.7,7.3-0.3,15,5.5,17.1c1.9,0.7,4,0.7,6,0.1c3.4,4.5,8,8.1,13.6,10.2c6.4,2.4,13.1,2.5,19.2,0.7
	c-0.1,4,0.5,6.7,2.1,7.3c3.8,1.4,11.5-9.5,17.6-24.9c0.2-0.5,0.4-0.9,0.6-1.4c0-0.1,0.1-0.2,0.1-0.3c0.2-0.4,0.3-0.8,0.5-1.3
	c6.3-16.9,8.2-31.8,4.1-33.3c-1.9-0.7-4.9,1.8-8.1,6.4c-3.4-5-8.3-9-14.3-11.2c-15.8-5.9-33.5,2.3-39.5,18.3c-0.6,1.5-1,3-1.3,4.5
	C711.7,522.7,709.5,525.4,708.2,528.8z"/>
<path class="st11" d="M1546.1,398c9.4-0.3,18.5-1.7,27.1-4.2c16.5,31.9,50.2,53.2,88.4,51.9c51.4-1.7,92.1-43.5,92.9-94.4
	c19.1-8.3,32.2-26.9,31.5-48.2c-0.9-28.2-25.6-50.2-55.2-49.2c-11.2,0.4-21.4,4-29.8,9.8c-13.7-6.8-29.3-10.4-45.6-9.9
	c-1,0-2.1,0.1-3.1,0.2c-13.6-49.8-59.9-85.6-113.7-83.9c-62.9,2-112.3,54.7-110.2,117.6C1430.5,350.7,1483.2,400.1,1546.1,398z"/>
<path class="st1" d="M1545.8,391c9.4-0.3,18.5-1.7,27.1-4.2c16.5,31.9,50.2,53.2,88.4,51.9c51.4-1.7,92.1-43.5,92.9-94.4
	c19.1-8.3,32.2-26.9,31.5-48.2c-0.9-28.2-25.6-50.2-55.2-49.2c-11.2,0.4-21.4,4-29.8,9.8c-13.7-6.8-29.3-10.4-45.6-9.9
	c-1,0-2.1,0.1-3.1,0.2c-13.6-49.8-59.9-85.6-113.7-83.9c-62.9,2-112.3,54.7-110.2,117.6C1430.2,343.7,1482.9,393.1,1545.8,391z"/>
<path class="st2" d="M1621.2,249.6c-0.4-0.1-0.9-0.2-1.3-0.4c-15.6-5.4-32.9,2.7-38.8,18.5c0,0,0,0.1,0,0.1c0,4.9-2.1,9.3-6.5,11.3
	c-0.4,0.2-0.6,0.4-0.8,0.8c-2.7,7.3-0.3,14.9,5.5,17.1c0.8,0.3,1.6,0.5,2.4,0.5c2.6,0.2,4.9,1.4,6.8,3.2c2.9,2.8,6.4,5.1,10.4,6.6
	c3.6,1.4,7.3,2,11,1.9c3.7-0.1,7.2,1.9,9.2,5.1c0.3,0.5,0.7,0.8,1.1,1c3.8,1.4,11.4-9.5,17.6-24.9c0.2-0.5,0.4-0.9,0.6-1.4
	c0-0.1,0.1-0.2,0.1-0.3c0.2-0.4,0.3-0.8,0.5-1.3c6.3-16.9,8.1-31.8,4.1-33.3L1621.2,249.6z"/>
<path class="st29" d="M1067.7,690.9c7.6-2.2,14.8-5.3,21.4-9.1c20.1,22.7,52.2,33.2,83.4,24.3c41.9-12,66.6-54.8,56.7-96.8
	c14-10.8,20.8-28.8,15.9-46.1c-6.6-22.9-31.4-35.9-55.5-29c-9.1,2.6-16.8,7.7-22.4,14.2c-12.7-2.7-26.2-2.5-39.5,1.4
	c-0.8,0.2-1.7,0.5-2.5,0.8c-21.4-38-66.9-57.9-110.7-45.3c-51.2,14.7-80.8,68.2-66.1,119.4C963,676,1016.4,705.6,1067.7,690.9z"/>
<path class="st1" d="M1073.7,694.2c7.6-2.2,14.8-5.3,21.4-9.1c20.1,22.7,52.2,33.2,83.4,24.3c41.9-12,66.6-54.8,56.7-96.8
	c14-10.8,20.8-28.8,15.9-46.1c-6.6-22.9-31.4-35.9-55.5-29c-9.1,2.6-16.8,7.7-22.4,14.2c-12.7-2.7-26.2-2.5-39.5,1.4
	c-0.8,0.2-1.7,0.5-2.5,0.8c-21.4-38-66.9-57.9-110.7-45.3c-51.2,14.7-80.8,68.2-66.1,119.4C969,679.3,1022.5,708.9,1073.7,694.2z"/>
<path class="st2" d="M1061.3,624c2.2,7.6,8.8,12.3,14.8,10.6c2-0.6,3.7-1.8,5-3.5c5.4,1.6,11.3,1.8,17.1,0.1c6.6-1.9,12.1-5.9,16-11
	c2.3,3.4,1.2-11.9,2.8-12.3c3.9-1.1,3.6-14.6-0.7-30.8c-0.1-0.5,3,16,2.9,15.5c0-0.1-3.4-17.2-3.4-17.3c-0.1-0.4-0.2-0.9-0.4-1.3
	c-4.6-14.3-7.8-8.6-9.3-7c-1.3,0.4-5.8,2.7-6.8,4.5c-5.8-2-12.1-2.3-18.4-0.5c-16.4,4.7-25.8,22-21,38.6c0.4,1.5,1,3,1.6,4.4
	C1060.4,616.9,1060.3,620.4,1061.3,624z"/>
<path class="st30" d="M385.9,409.1c0,0-67.1,110.3,75.8,162.9C461.7,572,379.3,522,385.9,409.1z"/>
<path class="st31" d="M762,177.5c0,0-68.4-78.6-161.4-1.4C600.6,176.1,689.8,148.2,762,177.5z"/>
<path class="st10" d="M1348.2,116c0,0-107.7-40.9-147.6,76.1C1276,116.8,1348.2,116,1348.2,116z"/>
<path class="st22" d="M1322.2,610.9c0,0-11.7,26.6-27.6,11.2c-11.1-10.8,14.6-13.8,14.6-13.8s0.8-35.2,6.1-18.4
	C1320.6,606.8,1322.2,610.9,1322.2,610.9z"/>
<path class="st32" d="M1088.8,591.4c8.8,9.7-16.9,9.3-6.1,15.3C1101.7,617.5,1088.8,591.4,1088.8,591.4z"/>
<path class="st33" d="M1491.4,378.5c0,0-128.7-72-13.8-194.6C1466.4,301.4,1491.4,378.5,1491.4,378.5z"/>
<path class="st10" d="M284,1821.9c-8.4,4.3-16,9.5-22.7,15.4c-28.5-21.8-68.1-26.6-102.2-9.1c-30.2,15.5-35.4,33-29.4,56.5
	c7,27.1,3,56-10.6,80.5c-9.6,17.3-16.4,35.4-11.4,45.1c12.9,25.1,44.6,34.4,70.9,20.9c9.9-5.1,17.7-12.7,22.7-21.6
	c15.3,0.3,30.9-3.1,45.4-10.6c0.9-0.5,1.8-1,2.7-1.5c33.6,39.2,90.7,51.8,138.6,27.1c56-28.8,78.1-97.5,49.3-153.5
	C408.8,1815.1,340,1793.1,284,1821.9z"/>
<path class="st1" d="M291.6,1830.9c-8.4,4.3-16,9.5-22.7,15.4c-28.5-21.8-68.1-26.6-102.2-9.1c-30.2,15.5-35.4,33-29.4,56.5
	c7,27.1,3,56-10.6,80.5c-9.6,17.3-16.4,35.4-11.4,45.1c12.9,25.1,44.6,34.4,70.9,20.9c9.9-5.1,17.7-12.7,22.7-21.6
	c15.3,0.3,30.9-3.1,45.4-10.6c0.9-0.5,1.8-1,2.7-1.5c33.6,39.2,90.7,51.8,138.6,27.1c56-28.8,78.1-97.5,49.3-153.5
	C416.3,1824.2,347.6,1802.1,291.6,1830.9z"/>
<path class="st22" d="M315.7,1948c0.3-0.5,0.6-0.9,0.9-1.3c12.4-15.4,10.1-38.1-5.3-51.1c0,0-0.1-0.1-0.2-0.1
	c-5.5-2-9.6-6.2-10.1-11.9c0-0.5-0.2-0.9-0.6-1.2c-7.1-6-16.7-6.3-21.5-0.7c-0.6,0.8-1.2,1.6-1.6,2.5c-1.3,2.8-3.5,5-6.3,6.3
	c-4.3,2.1-8.3,5.2-11.6,9.1c-3,3.5-5.2,7.5-6.6,11.6c-1.4,4.2-5.1,7.3-9.4,8.3c-0.7,0.2-1.2,0.4-1.5,0.9
	c-3.1,3.7,6.1,16.7,20.9,29.8c0.4,0.4,0.9,0.8,1.3,1.2c0.1,0.1,0.2,0.2,0.3,0.2c0.4,0.3,0.8,0.7,1.2,1c16.5,13.9,32.5,22,35.8,18
	L315.7,1948z"/>
<path class="st11" d="M425.3,1981.7c9.4-0.3,18.5-1.7,27.1-4.2c16.5,31.9,50.2,53.2,88.4,51.9c51.4-1.7,92.1-43.5,92.9-94.4
	c19.1-8.3,32.2-26.9,31.5-48.2c-0.9-28.2-25.6-50.2-55.2-49.2c-11.2,0.4-21.4,4-29.8,9.8c-13.7-6.8-29.3-10.4-45.6-9.9
	c-1,0-2.1,0.1-3.1,0.2c-13.6-49.8-59.9-85.6-113.7-83.9c-62.9,2-112.3,54.7-110.2,117.6C309.7,1934.4,362.3,1983.8,425.3,1981.7z"/>
<path class="st1" d="M424.9,1974.7c9.4-0.3,18.5-1.7,27.1-4.2c16.5,31.9,50.2,53.2,88.4,51.9c51.4-1.7,92.1-43.5,92.9-94.4
	c19.1-8.3,32.2-26.9,31.5-48.2c-0.9-28.2-25.6-50.2-55.2-49.2c-11.2,0.4-21.4,4-29.8,9.8c-13.7-6.8-29.3-10.4-45.6-9.9
	c-1,0-2.1,0.1-3.1,0.2c-13.6-49.8-59.9-85.6-113.7-83.9c-62.9,2-112.3,54.7-110.2,117.6C309.3,1927.4,362,1976.8,424.9,1974.7z"/>
<path class="st2" d="M500.3,1833.3c-0.4-0.1-0.9-0.2-1.3-0.4c-15.6-5.4-32.9,2.7-38.8,18.5c0,0,0,0.1,0,0.1c0,4.9-2.1,9.3-6.5,11.3
	c-0.4,0.2-0.6,0.4-0.8,0.8c-2.7,7.3-0.3,14.9,5.5,17.1c0.8,0.3,1.6,0.5,2.4,0.5c2.6,0.2,4.9,1.4,6.8,3.2c2.9,2.8,6.4,5.1,10.4,6.6
	c3.6,1.4,7.3,2,11,1.9c3.7-0.1,7.2,1.9,9.2,5.1c0.3,0.5,0.7,0.8,1.1,1c3.8,1.4,11.4-9.5,17.6-24.9c0.2-0.5,0.4-0.9,0.6-1.4
	c0-0.1,0.1-0.2,0.1-0.3c0.2-0.4,0.3-0.8,0.5-1.3c6.3-16.9,8.1-31.8,4.1-33.3L500.3,1833.3z"/>
<path class="st34" d="M354.8,1953.3c0,0-113-97,7.5-188.8C311.9,1838.4,354.8,1953.3,354.8,1953.3z"/>
</svg>
